<?xml version='1.0' encoding='utf-8'?>
<!DOCTYPE svg>
<!-- Generator: Adobe Illustrator 15.1.0, SVG Export Plug-In . SVG Version: 6.00 Build 0)  -->
<svg xmlns="http://www.w3.org/2000/svg" viewBox="0 0 39.69 90.71" width="0.55125in" xml:space="preserve" x="0px" id="Layer_2" y="0px" version="1.1" gorn="0" xmlns:xml="http://www.w3.org/XML/1998/namespace"  height="1.25986in" enable-background="new 0 0 39.69 90.71">
    <desc >
        <referenceFile >FC28_B_PCB_v1.svg</referenceFile>
    </desc>
    <g id="silkscreen" gorn="0.1" >
        <rect width="28.167" x="5.945" y="79.914" stroke="#FFFFFF" stroke-miterlimit="10"  stroke-width="1" height="7.043" fill="none"/>
        <rect width="14.141" x="12.456" y="1.666" stroke="#FFFFFF" stroke-miterlimit="10"  stroke-width="1" height="7.041" fill="none"/>
        <g >
            <line stroke="#FFFFFF" stroke-miterlimit="10" y1="7.091"  y2="3.406" stroke-width="1" x1="29.778" x2="29.778" fill="none"/>
            <line stroke="#FFFFFF" stroke-miterlimit="10" y1="5.249"  y2="5.249" stroke-width="1" x1="31.684" x2="27.999" fill="none"/>
        </g>
        <line stroke="#FFFFFF" stroke-miterlimit="10" y1="4.967"  y2="4.967" stroke-width="1" x1="10.956" x2="7.838" fill="none"/>
        <g transform="matrix(1 0 0 1 7.2793 78.1973)" >
            <g >
                <g >
                    <g >
                        <text font-size="3.4"  fill="#FFFFFF" font-family="DroidSans">AO  DO  GND  VCC</text>
                    </g>
                </g>
            </g>
        </g>
        <rect width="39.69" stroke="#FFFFFF" stroke-miterlimit="10"  stroke-width="0.75" height="90.71" fill="none"/>
    </g>
    <g id="copper1" gorn="0.2" >
        <g id="copper0" gorn="0.2.0" >
            <path d="M30.829,85.828c1.322,0,2.393-1.07,2.393-2.393s-1.07-2.393-2.393-2.393s-2.393,1.07-2.393,2.393S29.507,85.828,30.829,85.828z M30.829,82.238c0.662,0,1.197,0.535,1.197,1.197c0,0.66-0.535,1.197-1.197,1.197c-0.66,0-1.197-0.537-1.197-1.197C29.632,82.773,30.169,82.238,30.829,82.238z" id="connector8pad" gorn="0.2.0.0"  fill="#F5BD18"/>
            <path d="M23.629,85.828c1.322,0,2.395-1.07,2.395-2.393s-1.072-2.393-2.395-2.393c-1.32,0-2.393,1.07-2.393,2.393S22.309,85.828,23.629,85.828z M23.629,82.238c0.662,0,1.197,0.535,1.197,1.197c0,0.66-0.535,1.197-1.197,1.197c-0.66,0-1.195-0.537-1.195-1.197C22.434,82.773,22.969,82.238,23.629,82.238z" id="connector9pad" gorn="0.2.0.1"  fill="#F5BD18"/>
            <path d="M16.429,85.828c1.322,0,2.393-1.07,2.393-2.393s-1.07-2.393-2.393-2.393s-2.393,1.07-2.393,2.393S15.107,85.828,16.429,85.828z M16.427,82.238c0.662,0,1.197,0.535,1.197,1.197c0,0.66-0.535,1.197-1.197,1.197c-0.66,0-1.195-0.537-1.195-1.197C15.232,82.773,15.767,82.238,16.427,82.238z" id="connector10pad" gorn="0.2.0.2"  fill="#F5BD18"/>
            <path d="M9.228,85.828c1.322,0,2.393-1.07,2.393-2.393s-1.07-2.393-2.393-2.393s-2.393,1.07-2.393,2.393S7.906,85.828,9.228,85.828z M9.228,82.238c0.662,0,1.197,0.535,1.197,1.197c0,0.66-0.535,1.197-1.197,1.197c-0.66,0-1.197-0.537-1.197-1.197C8.031,82.773,8.568,82.238,9.228,82.238z" id="connector11pad" gorn="0.2.0.3"  fill="#F5BD18"/>
        </g>
        <g id="copper0_2_" gorn="0.2.1" >
            <g id="copper0_1_" gorn="0.2.1.0" >
                <path d="M23.127,7.579c1.322,0,2.393-1.07,2.393-2.393s-1.07-2.393-2.393-2.393s-2.393,1.07-2.393,2.393S21.805,7.579,23.127,7.579z M23.125,3.989c0.662,0,1.197,0.535,1.197,1.197c0,0.66-0.535,1.197-1.197,1.197c-0.66,0-1.195-0.537-1.195-1.197C21.93,4.524,22.465,3.989,23.125,3.989z" id="connector12pad" gorn="0.2.1.0.0"  fill="#F5BD18"/>
                <path d="M15.926,7.579c1.322,0,2.393-1.07,2.393-2.393s-1.07-2.393-2.393-2.393s-2.393,1.07-2.393,2.393S14.604,7.579,15.926,7.579z M15.926,3.989c0.662,0,1.197,0.535,1.197,1.197c0,0.66-0.535,1.197-1.197,1.197c-0.66,0-1.197-0.537-1.197-1.197C14.729,4.524,15.266,3.989,15.926,3.989z" id="connector13pad" gorn="0.2.1.0.1"  fill="#F5BD18"/>
            </g>
        </g>
    </g>
</svg>
