<?xml version='1.0' encoding='UTF-8' standalone='no'?>
<svg
  xmlns:dc="http://purl.org/dc/elements/1.1/"
  xmlns:cc="http://creativecommons.org/ns#"
  xmlns:rdf="http://www.w3.org/1999/02/22-rdf-syntax-ns#"
  xmlns:svg="http://www.w3.org/2000/svg"
  xmlns="http://www.w3.org/2000/svg"
  height="2.0513387in"
  version="1.2"
  gorn="0"
  id="svg13515"
  width="1.1241732in"
  viewBox="0 0 1124.1736 2051.3394">
  <desc
    id="desc13517">
    <referenceFile
      id="referenceFile13519">esp32_p30_w11_9de09df6ee672a047957b8e804927eb5_1_pcb.svg</referenceFile>
  </desc>
  <metadata
    id="metadata13646">
    <rdf:RDF>
      <cc:Work
        rdf:about="">
        <dc:format>image/svg+xml</dc:format>
        <dc:type
          rdf:resource="http://purl.org/dc/dcmitype/StillImage"
        />
        <dc:title/>
      </cc:Work>
    </rdf:RDF>
  </metadata>
  <defs
    id="defs13644"
  />
  <g
    id="silkscreen">
    <line
      stroke-dasharray="none"
      stroke-linejoin="miter"
      stroke-width="10"
      stroke="#000000"
      stroke-miterlimit="4"
      gorn="0.3.3"
      y2="2046.3395"
      x2="7.8740196"
      id="line13530"
      x1="1118.1106"
      y1="2046.3395"
    />
    <line
      stroke-dasharray="none"
      stroke-linejoin="miter"
      stroke-width="10"
      stroke="#000000"
      stroke-miterlimit="4"
      gorn="0.3.8"
      y2="1851.3396"
      x2="422.31509"
      id="line80"
      x1="422.31509"
      y1="2051.3394"
    />
    <line
      stroke-dasharray="none"
      stroke-linejoin="miter"
      stroke-width="10"
      stroke="#000000"
      stroke-miterlimit="4"
      gorn="0.3.9"
      y2="1851.3396"
      x2="704.32306"
      id="line82"
      x1="704.32306"
      y1="2051.3394"
    />
    <line
      stroke-dasharray="none"
      stroke-linejoin="miter"
      stroke-width="10"
      stroke="#000000"
      stroke-miterlimit="4"
      gorn="0.3.10"
      y2="1851.3396"
      x2="702.32294"
      id="line84"
      x1="422.31506"
      y1="1851.3396"
    />
    <circle
      r="46.500019"
      gorn="0.4.0.58"
      cy="1968.8395"
      cx="82.500031"
      id="circle216"
      fill="none"
      stroke="#000000"
      stroke-width="10"
    />
    <circle
      r="46.500019"
      id="circle218"
      cx="1023.5004"
      cy="1968.8395"
      gorn="0.4.0.58"
      fill="none"
      stroke="#000000"
      stroke-width="10"
    />
    <line
      stroke-dasharray="none"
      stroke-linejoin="miter"
      stroke-width="10"
      stroke="#000000"
      y1="2045.4337"
      x1="5"
      id="line13522"
      x2="5"
      y2="6.0629773"
      gorn="0.3.0"
      stroke-miterlimit="4"
    />
    <line
      stroke-dasharray="none"
      stroke-linejoin="miter"
      stroke-width="10.00000095"
      stroke="#000000"
      y1="6.0630918"
      x1="1119.1736"
      id="line13526"
      x2="1119.1736"
      y2="2045.4337"
      gorn="0.3.2"
      stroke-miterlimit="4"
    />
    <line
      stroke-dasharray="none"
      stroke-linejoin="miter"
      stroke-width="10.00000095"
      stroke="#000000"
      y1="5.0000005"
      x1="7.8740196"
      id="line13524"
      x2="1118.1106"
      y2="5.0000005"
      gorn="0.3.1"
      stroke-miterlimit="4"
    />
    <circle
      r="46.500019"
      gorn="0.4.0.58"
      cy="99.838707"
      cx="82.500031"
      id="circle222"
      fill="none"
      stroke="#000000"
      stroke-width="10"
    />
    <circle
      r="46.500019"
      id="circle220"
      cx="1023.5004"
      cy="99.838707"
      gorn="0.4.0.58"
      fill="none"
      stroke="#000000"
      stroke-width="10"
    />
    <text
      transform="rotate(-90)"
      id="text3372"
      x="-1660.7598"
      gorn="0.3.7"
      y="973.70642"
      font-size="50"
      font-family="'Droid Sans'"
      fill="#000000">3V3</text>
  </g>
  <g
    id="copper1">
    <g
      id="copper0">
      <circle
        stroke-width="7"
        stroke="#f7bd13"
        fill="none"
        gorn="0.4.0.0"
        cy="1619.8353"
        cx="1060.3153"
        id="connector0pin"
        r="22.5"
      />
      <path
        stroke-width="9.99493027"
        stroke="none"
        fill="#f7bd13"
        gorn="0.4.0.1"
        id="path423"
        d="m 1111.1785,1619.848 a 25.986819,25.986814 0 0 1 -25.9868,25.9873 h -51.9736 a 25.986819,25.986814 0 0 1 -25.9868,-25.9873 v 0 a 25.986819,25.986814 0 0 1 25.9868,-25.9873 h 51.9736 a 25.986819,25.986814 0 0 1 25.9868,25.9873 z m -52.7291,-15.9391 a 15.992809,15.992806 0 1 0 0,31.9856 15.992809,15.992806 0 1 0 0,-31.9856 z"
      />
      <circle
        stroke-width="7"
        stroke="#f7bd13"
        fill="none"
        gorn="0.4.0.2"
        cy="1519.8353"
        cx="1060.3153"
        id="connector1pin"
        r="22.5"
      />
      <path
        stroke-width="9.99493027"
        stroke="none"
        fill="#f7bd13"
        gorn="0.4.0.3"
        id="path467"
        d="m 1111.2626,1519.848 a 25.986819,25.986814 0 0 1 -25.9868,25.9873 h -51.9736 a 25.986819,25.986814 0 0 1 -25.9868,-25.9873 v 0 a 25.986819,25.986814 0 0 1 25.9868,-25.9873 h 51.9736 a 25.986819,25.986814 0 0 1 25.9868,25.9873 z m -52.7291,-15.935 a 15.991889,15.991886 0 1 0 0,31.9814 15.991889,15.991886 0 1 0 0,-31.9814 z"
      />
      <circle
        stroke-width="7"
        stroke="#f7bd13"
        fill="none"
        r="22.5"
        gorn="0.4.0.4"
        cy="1419.8352"
        cx="1060.3153"
        id="connector2pin"
      />
      <path
        stroke-width="9.99493027"
        stroke="none"
        fill="#f7bd13"
        gorn="0.4.0.5"
        id="path13574-4"
        d="m 1111.3154,1419.848 a 26.000028,25.986814 0 0 1 -26,25.9873 h -52 a 26.000028,25.986814 0 0 1 -26,-25.9873 v 0 a 26.000028,25.986814 0 0 1 26,-25.9872 h 52 a 26.000028,25.986814 0 0 1 26,25.9872 z m -52.7559,-15.9391 a 16.000018,15.991886 0 1 0 0,31.9815 16.000018,15.991886 0 1 0 0,-31.9815 z"
      />
      <circle
        stroke-width="7"
        stroke="#f7bd13"
        fill="none"
        gorn="0.4.0.6"
        cy="1319.8352"
        cx="1060.3153"
        id="connector3pin"
        r="22.5"
      />
      <path
        stroke-width="9.99493027"
        stroke="none"
        fill="#f7bd13"
        gorn="0.4.0.7"
        id="path461"
        d="m 1111.2626,1319.848 a 25.986819,25.986814 0 0 1 -25.9868,25.9872 h -51.9736 a 25.986819,25.986814 0 0 1 -25.9868,-25.9872 v 0 a 25.986819,25.986814 0 0 1 25.9868,-25.9873 h 51.9736 a 25.986819,25.986814 0 0 1 25.9868,25.9873 z m -52.7291,-15.9351 a 15.991889,15.991886 0 1 0 0,31.9815 15.991889,15.991886 0 1 0 0,-31.9815 z"
      />
      <circle
        stroke-width="7"
        stroke="#f7bd13"
        fill="none"
        r="22.5"
        gorn="0.4.0.8"
        cy="1219.8352"
        cx="1060.3153"
        id="connector4pin"
      />
      <path
        stroke-width="9.99493027"
        stroke="none"
        fill="#f7bd13"
        gorn="0.4.0.9"
        id="path459"
        d="m 1111.3154,1219.8479 a 26.000028,25.986814 0 0 1 -26,25.9873 h -52 a 26.000028,25.986814 0 0 1 -26,-25.9873 v 0 a 26.000028,25.986814 0 0 1 26,-25.9873 h 52 a 26.000028,25.986814 0 0 1 26,25.9873 z m -52.7559,-15.935 a 16.000938,15.992806 0 1 0 0,31.9856 16.000938,15.992806 0 1 0 0,-31.9856 z"
      />
      <circle
        stroke-width="7"
        stroke="#f7bd13"
        fill="none"
        gorn="0.4.0.10"
        cy="1119.8351"
        cx="1060.3153"
        id="connector5pin"
        r="22.5"
      />
      <path
        stroke-width="9.99493027"
        stroke="none"
        fill="#f7bd13"
        gorn="0.4.0.11"
        id="path479"
        d="m 1111.2626,1119.8479 a 25.986819,25.986814 0 0 1 -25.9868,25.9872 h -51.9736 a 25.986819,25.986814 0 0 1 -25.9868,-25.9872 v 0 a 25.986819,25.986814 0 0 1 25.9868,-25.9873 h 51.9736 a 25.986819,25.986814 0 0 1 25.9868,25.9873 z m -52.7291,-15.935 a 15.992809,15.992806 0 1 0 0,31.9856 15.992809,15.992806 0 1 0 0,-31.9856 z"
      />
      <circle
        stroke-width="7"
        stroke="#f7bd13"
        fill="none"
        r="22.5"
        gorn="0.4.0.12"
        cy="1019.8351"
        cx="1060.3153"
        id="connector6pin"
      />
      <path
        stroke-width="9.99493027"
        stroke="none"
        fill="#f7bd13"
        gorn="0.4.0.13"
        id="path481"
        d="m 1111.2626,1019.8478 a 25.986819,25.986814 0 0 1 -25.9868,25.9873 h -51.9736 a 25.986819,25.986814 0 0 1 -25.9868,-25.9873 v 0 a 25.986819,25.986814 0 0 1 25.9868,-25.98734 h 51.9736 a 25.986819,25.986814 0 0 1 25.9868,25.98734 z m -52.7291,-15.935 a 15.992809,15.992806 0 1 0 0,31.9856 15.992809,15.992806 0 1 0 0,-31.9856 z"
      />
      <circle
        stroke-width="7"
        stroke="#f7bd13"
        fill="none"
        gorn="0.4.0.14"
        cy="919.83502"
        cx="1060.3153"
        id="connector7pin"
        r="22.5"
      />
      <path
        stroke-width="9.99493027"
        stroke="none"
        fill="#f7bd13"
        gorn="0.4.0.15"
        id="path485"
        d="m 1111.3155,919.84791 a 26.000005,25.986814 0 0 1 -26,25.9872 h -52 a 26.000005,25.986814 0 0 1 -26.0001,-25.9872 v 0 a 26.000005,25.986814 0 0 1 26.0001,-25.98322 h 52 a 26.000005,25.986814 0 0 1 26,25.98322 z m -52.756,-15.93508 a 16.000968,15.99285 0 1 0 0,31.98568 16.000968,15.99285 0 1 0 0,-31.98568 z"
      />
      <circle
        stroke-width="7"
        stroke="#f7bd13"
        fill="none"
        r="22.5"
        gorn="0.4.0.16"
        cy="819.83508"
        cx="1060.3153"
        id="connector8pin"
      />
      <path
        stroke-width="9.99493027"
        stroke="none"
        fill="#f7bd13"
        gorn="0.4.0.17"
        id="path483"
        d="m 1111.2627,819.85191 a 25.986819,25.986814 0 0 1 -25.9868,25.98315 h -51.9736 a 25.986819,25.986814 0 0 1 -25.9869,-25.98315 v 0 a 25.986819,25.986814 0 0 1 25.9869,-25.98727 h 51.9736 a 25.986819,25.986814 0 0 1 25.9868,25.98727 z m -52.7292,-15.93913 a 15.992809,15.992806 0 1 0 0,31.98561 15.992809,15.992806 0 1 0 0,-31.98561 z"
      />
      <circle
        stroke-width="7"
        stroke="#f7bd13"
        fill="none"
        gorn="0.4.0.18"
        cy="719.83502"
        cx="1060.3153"
        id="connector9pin"
        r="22.5"
      />
      <path
        stroke-width="9.99493027"
        stroke="none"
        fill="#f7bd13"
        gorn="0.4.0.19"
        id="path469"
        d="m 1111.2627,719.84774 a 25.986819,25.986814 0 0 1 -25.9868,25.98728 h -51.9736 a 25.986819,25.986814 0 0 1 -25.9869,-25.98728 v 0 a 25.986819,25.986814 0 0 1 25.9869,-25.98728 h 51.9736 a 25.986819,25.986814 0 0 1 25.9868,25.98728 z m -52.7292,-15.93914 a 15.992809,15.992806 0 1 0 0,31.98561 15.992809,15.992806 0 1 0 0,-31.98561 z"
      />
      <circle
        stroke-width="7"
        stroke="#f7bd13"
        fill="none"
        gorn="0.4.0.20"
        cy="619.83502"
        cx="1060.3153"
        id="connector10pin"
        r="22.5"
      />
      <path
        stroke-width="9.99493027"
        stroke="none"
        fill="#f7bd13"
        gorn="0.4.0.21"
        id="path457"
        d="m 1111.2627,619.84771 a 25.986819,25.986814 0 0 1 -25.9868,25.98728 h -51.9736 a 25.986819,25.986814 0 0 1 -25.9869,-25.98728 v 0 a 25.986819,25.986814 0 0 1 25.9869,-25.98727 h 51.9736 a 25.986819,25.986814 0 0 1 25.9868,25.98727 z m -52.7292,-15.93914 a 15.992813,15.99281 0 1 0 0,31.98562 15.992813,15.99281 0 1 0 0,-31.98562 z"
      />
      <circle
        stroke-width="7"
        stroke="#f7bd13"
        fill="none"
        r="22.5"
        gorn="0.4.0.22"
        cy="519.83496"
        cx="1060.3153"
        id="connector11pin"
      />
      <path
        stroke-width="9.99493027"
        stroke="none"
        fill="#f7bd13"
        gorn="0.4.0.23"
        id="path477"
        d="m 1111.3155,519.84767 a 26.000005,25.986814 0 0 1 -26,25.98728 h -52 a 26.000005,25.986814 0 0 1 -26.0001,-25.98728 v 0 a 26.000005,25.986814 0 0 1 26.0001,-25.98728 h 52 a 26.000005,25.986814 0 0 1 26,25.98728 z m -52.756,-15.93501 a 16.000003,15.991886 0 1 0 0,31.97735 16.000003,15.991886 0 1 0 0,-31.97735 z"
      />
      <circle
        stroke-width="7"
        stroke="#f7bd13"
        fill="none"
        gorn="0.4.0.24"
        cy="419.83493"
        cx="1060.3153"
        id="connector12pin"
        r="22.5"
      />
      <path
        stroke-width="9.99493027"
        stroke="none"
        fill="#f7bd13"
        gorn="0.4.0.25"
        id="path475"
        d="m 1111.2627,419.84763 a 25.986819,25.986814 0 0 1 -25.9868,25.98728 h -51.9736 a 25.986819,25.986814 0 0 1 -25.9869,-25.98728 v 0 a 25.986819,25.986814 0 0 1 25.9869,-25.98727 h 51.9736 a 25.986819,25.986814 0 0 1 25.9868,25.98727 z m -52.7292,-15.93501 a 15.991889,15.991886 0 1 0 0,31.98149 15.991889,15.991886 0 1 0 0,-31.98149 z"
      />
      <circle
        stroke-width="7"
        stroke="#f7bd13"
        fill="none"
        r="22.5"
        gorn="0.4.0.26"
        cy="319.8349"
        cx="1060.3153"
        id="connector13pin"
      />
      <path
        stroke-width="9.99493027"
        stroke="none"
        fill="#f7bd13"
        gorn="0.4.0.27"
        id="path473"
        d="m 1111.3155,319.84759 a 26.000005,25.986814 0 0 1 -26,25.98728 h -52 a 26.000005,25.986814 0 0 1 -26.0001,-25.98728 v 0 a 26.000005,25.986814 0 0 1 26.0001,-25.98728 h 52 a 26.000005,25.986814 0 0 1 26,25.98728 z m -52.756,-15.93501 a 16.000003,15.991886 0 1 0 0,31.98148 16.000003,15.991886 0 1 0 0,-31.98148 z"
      />
      <circle
        stroke-width="7"
        stroke="#f7bd13"
        fill="none"
        gorn="0.4.0.28"
        cy="219.83482"
        cx="1060.3153"
        id="connector14pin"
        r="22.5"
      />
      <path
        stroke-width="9.99493027"
        stroke="none"
        fill="#f7bd13"
        gorn="0.4.0.29"
        id="path471"
        d="m 1111.2627,219.84756 a 25.986819,25.986814 0 0 1 -25.9868,25.98728 h -51.9736 a 25.986819,25.986814 0 0 1 -25.9869,-25.98728 v 0 a 25.986819,25.986814 0 0 1 25.9869,-25.98727 h 51.9736 a 25.986819,25.986814 0 0 1 25.9868,25.98727 z m -52.7292,-15.93501 a 15.991889,15.991886 0 1 0 0,31.98149 15.991889,15.991886 0 1 0 0,-31.98149 z"
      />
      <circle
        stroke-width="7"
        stroke="#f7bd13"
        fill="none"
        gorn="0.4.0.30"
        cy="219.83482"
        cx="60.301785"
        id="connector15pin"
        r="22.5"
      />
      <path
        stroke-width="9.99493027"
        stroke="none"
        fill="#f7bd13"
        gorn="0.4.0.31"
        id="path425"
        d="M 113.71016,219.84756 A 25.986819,25.986814 0 0 1 87.723345,245.83484 H 35.749706 A 25.986819,25.986814 0 0 1 9.7628828,219.84756 v 0 A 25.986819,25.986814 0 0 1 35.749706,193.86029 h 51.973639 a 25.986819,25.986814 0 0 1 25.986815,25.98727 z M 61.768006,203.92081 a 15.991889,15.991886 0 1 0 0,31.98148 15.991889,15.991886 0 1 0 0,-31.98148 z"
      />
      <circle
        stroke-width="7"
        stroke="#f7bd13"
        fill="none"
        gorn="0.4.0.32"
        cy="319.8349"
        cx="60.301785"
        id="connector16pin"
        r="22.5"
      />
      <path
        stroke-width="9.99493027"
        stroke="none"
        fill="#f7bd13"
        gorn="0.4.0.33"
        id="path431"
        d="M 113.71016,319.84759 A 25.986819,25.986814 0 0 1 87.723345,345.83487 H 35.749706 A 25.986819,25.986814 0 0 1 9.7628828,319.84759 v 0 A 25.986819,25.986814 0 0 1 35.749706,293.86031 h 51.973639 a 25.986819,25.986814 0 0 1 25.986815,25.98728 z M 61.768006,303.91258 a 15.991889,15.991886 0 1 0 0,31.98148 15.991889,15.991886 0 1 0 0,-31.98148 z"
      />
      <circle
        stroke-width="7"
        stroke="#f7bd13"
        fill="none"
        gorn="0.4.0.34"
        cy="419.83493"
        cx="60.301785"
        id="connector17pin"
        r="22.5"
      />
      <path
        stroke-width="9.99493027"
        stroke="none"
        fill="#f7bd13"
        gorn="0.4.0.35"
        id="path433"
        d="M 113.71016,419.84763 A 25.986819,25.986814 0 0 1 87.723345,445.83491 H 35.749706 A 25.986819,25.986814 0 0 1 9.7628828,419.84763 v 0 A 25.986819,25.986814 0 0 1 35.749706,393.86036 h 51.973639 a 25.986819,25.986814 0 0 1 25.986815,25.98727 z M 61.768006,403.91262 a 15.991889,15.991886 0 1 0 0,31.98149 15.991889,15.991886 0 1 0 0,-31.98149 z"
      />
      <circle
        stroke-width="7"
        stroke="#f7bd13"
        fill="none"
        gorn="0.4.0.36"
        cy="519.83496"
        cx="60.301785"
        id="connector18pin"
        r="22.5"
      />
      <path
        stroke-width="9.99493027"
        stroke="none"
        fill="#f7bd13"
        gorn="0.4.0.37"
        id="path435"
        d="M 113.71016,519.84767 A 25.986819,25.986814 0 0 1 87.723345,545.83495 H 35.749706 A 25.986819,25.986814 0 0 1 9.7628828,519.84767 v 0 A 25.986819,25.986814 0 0 1 35.749706,493.86039 h 51.973639 a 25.986819,25.986814 0 0 1 25.986815,25.98728 z M 61.768006,503.91266 a 15.991889,15.991886 0 1 0 0,31.97735 15.991889,15.991886 0 1 0 0,-31.97735 z"
      />
      <circle
        stroke-width="7"
        stroke="#f7bd13"
        fill="none"
        gorn="0.4.0.38"
        cy="619.83502"
        cx="60.301785"
        id="connector19pin"
        r="22.5"
      />
      <path
        stroke-width="9.99493027"
        stroke="none"
        fill="#f7bd13"
        gorn="0.4.0.39"
        id="path437"
        d="M 112.68564,619.84771 A 25.986819,25.986814 0 0 1 86.698825,645.83499 H 34.725186 A 25.986819,25.986814 0 0 1 8.7383668,619.84771 v 0 A 25.986819,25.986814 0 0 1 34.725186,593.86044 h 51.973639 a 25.986819,25.986814 0 0 1 25.986815,25.98727 z M 60.743486,603.90857 a 15.992813,15.99281 0 1 0 0,31.98562 15.992813,15.99281 0 1 0 0,-31.98562 z"
      />
      <circle
        stroke-width="7"
        stroke="#f7bd13"
        fill="none"
        gorn="0.4.0.40"
        cy="719.83502"
        cx="60.301785"
        id="connector20pin"
        r="22.5"
      />
      <path
        stroke-width="9.99493027"
        stroke="none"
        fill="#f7bd13"
        gorn="0.4.0.41"
        id="path439"
        d="M 113.71016,719.84774 A 25.986819,25.986814 0 0 1 87.723345,745.83502 H 35.749706 A 25.986819,25.986814 0 0 1 9.7628828,719.84774 v 0 A 25.986819,25.986814 0 0 1 35.749706,693.86046 h 51.973639 a 25.986819,25.986814 0 0 1 25.986815,25.98728 z M 61.768006,703.9086 a 15.992809,15.992806 0 1 0 0,31.98561 15.992809,15.992806 0 1 0 0,-31.98561 z"
      />
      <circle
        stroke-width="7"
        stroke="#f7bd13"
        fill="none"
        gorn="0.4.0.42"
        cy="819.83508"
        cx="60.301785"
        id="connector21pin"
        r="22.5"
      />
      <path
        stroke-width="9.99493027"
        stroke="none"
        fill="#f7bd13"
        gorn="0.4.0.43"
        id="path441"
        d="M 113.71016,819.85191 A 25.986819,25.986814 0 0 1 87.723345,845.83506 H 35.749706 A 25.986819,25.986814 0 0 1 9.7628828,819.85191 v 0 A 25.986819,25.986814 0 0 1 35.749706,793.86464 h 51.973639 a 25.986819,25.986814 0 0 1 25.986815,25.98727 z M 61.768006,803.91278 a 15.992809,15.992806 0 1 0 0,31.98561 15.992809,15.992806 0 1 0 0,-31.98561 z"
      />
      <circle
        stroke-width="7"
        stroke="#f7bd13"
        fill="none"
        gorn="0.4.0.44"
        cy="919.83502"
        cx="60.301785"
        id="connector22pin"
        r="22.5"
      />
      <path
        stroke-width="9.99493027"
        stroke="none"
        fill="#f7bd13"
        gorn="0.4.0.45"
        id="path443"
        d="m 113.71016,919.84791 a 25.986819,25.986814 0 0 1 -25.986815,25.9872 H 35.749706 A 25.986819,25.986814 0 0 1 9.7628828,919.84791 v 0 A 25.986819,25.986814 0 0 1 35.749706,893.86469 h 51.973639 a 25.986819,25.986814 0 0 1 25.986815,25.98322 z M 61.768006,903.91283 a 15.992853,15.99285 0 1 0 0,31.98568 15.992853,15.99285 0 1 0 0,-31.98568 z"
      />
      <circle
        stroke-width="7"
        stroke="#f7bd13"
        fill="none"
        gorn="0.4.0.46"
        cy="1019.8351"
        cx="60.301785"
        id="connector23pin"
        r="22.5"
      />
      <path
        stroke-width="9.99493027"
        stroke="none"
        fill="#f7bd13"
        gorn="0.4.0.47"
        id="path445"
        d="m 113.70622,1019.8478 a 25.986819,25.986814 0 0 1 -25.986815,25.9873 H 35.745776 A 25.986819,25.986814 0 0 1 9.7589518,1019.8478 v 0 A 25.986819,25.986814 0 0 1 35.745776,993.86046 h 51.973639 a 25.986819,25.986814 0 0 1 25.986805,25.98734 z m -51.942154,-15.9267 a 15.992504,15.992501 0 1 0 0,31.9814 15.992504,15.992501 0 1 0 0,-31.9814 z"
      />
      <circle
        stroke-width="7"
        stroke="#f7bd13"
        fill="none"
        gorn="0.4.0.48"
        cy="1119.8351"
        cx="60.301785"
        id="connector24pin"
        r="22.5"
      />
      <path
        stroke-width="9.99493027"
        stroke="none"
        fill="#f7bd13"
        gorn="0.4.0.49"
        id="path447"
        d="m 113.70622,1119.8479 a 25.986819,25.986814 0 0 1 -25.986815,25.9872 H 35.745776 A 25.986819,25.986814 0 0 1 9.7589518,1119.8479 v 0 a 25.986819,25.986814 0 0 1 25.9868242,-25.9873 h 51.973639 a 25.986819,25.986814 0 0 1 25.986805,25.9873 z m -51.942154,-15.935 a 15.992809,15.992806 0 1 0 0,31.9856 15.992809,15.992806 0 1 0 0,-31.9856 z"
      />
      <circle
        stroke-width="7"
        stroke="#f7bd13"
        fill="none"
        gorn="0.4.0.50"
        cy="1219.8352"
        cx="60.301785"
        id="connector25pin"
        r="22.5"
      />
      <path
        stroke-width="9.99493027"
        stroke="none"
        fill="#f7bd13"
        gorn="0.4.0.51"
        id="path449"
        d="m 113.70622,1219.8479 a 25.986819,25.986814 0 0 1 -25.986815,25.9873 H 35.745776 A 25.986819,25.986814 0 0 1 9.7589518,1219.8479 v 0 a 25.986819,25.986814 0 0 1 25.9868242,-25.9873 h 51.973639 a 25.986819,25.986814 0 0 1 25.986805,25.9873 z m -51.942154,-15.935 a 15.992809,15.992806 0 1 0 0,31.9856 15.992809,15.992806 0 1 0 0,-31.9856 z"
      />
      <circle
        stroke-width="7"
        stroke="#f7bd13"
        fill="none"
        gorn="0.4.0.52"
        cy="1319.8352"
        cx="60.301785"
        id="connector26pin"
        r="22.5"
      />
      <path
        stroke-width="9.99493027"
        stroke="none"
        fill="#f7bd13"
        gorn="0.4.0.53"
        id="path451"
        d="m 113.70622,1319.848 a 25.986819,25.986814 0 0 1 -25.986815,25.9872 H 35.745776 A 25.986819,25.986814 0 0 1 9.7589518,1319.848 v 0 a 25.986819,25.986814 0 0 1 25.9868242,-25.9873 h 51.973639 a 25.986819,25.986814 0 0 1 25.986805,25.9873 z m -51.942154,-15.9351 a 15.991889,15.991886 0 1 0 0,31.9815 15.991889,15.991886 0 1 0 0,-31.9815 z"
      />
      <circle
        stroke-width="7"
        stroke="#f7bd13"
        fill="none"
        gorn="0.4.0.54"
        cy="1419.8352"
        cx="60.301785"
        id="connector27pin"
        r="22.5"
      />
      <path
        stroke-width="9.99493027"
        stroke="none"
        fill="#f7bd13"
        gorn="0.4.0.55"
        id="path455"
        d="m 113.70622,1419.848 a 25.986819,25.986814 0 0 1 -25.986815,25.9873 H 35.745776 A 25.986819,25.986814 0 0 1 9.7589518,1419.848 v 0 a 25.986819,25.986814 0 0 1 25.9868242,-25.9872 h 51.973639 a 25.986819,25.986814 0 0 1 25.986805,25.9872 z m -51.942154,-15.9391 a 15.991889,15.991886 0 1 0 0,31.9815 15.991889,15.991886 0 1 0 0,-31.9815 z"
      />
      <circle
        stroke-width="7"
        stroke="#f7bd13"
        fill="none"
        gorn="0.4.0.56"
        cy="1519.8353"
        cx="60.304562"
        id="connector28pin"
        r="22.5"
      />
      <path
        stroke-width="9.99493027"
        stroke="none"
        fill="#f7bd13"
        gorn="0.4.0.57"
        id="path453"
        d="m 113.70622,1519.848 a 25.986819,25.986814 0 0 1 -25.986815,25.9873 H 35.745776 A 25.986819,25.986814 0 0 1 9.7589518,1519.848 v 0 a 25.986819,25.986814 0 0 1 25.9868242,-25.9873 h 51.973639 a 25.986819,25.986814 0 0 1 25.986805,25.9873 z m -51.942154,-15.935 a 15.991889,15.991886 0 1 0 0,31.9814 15.991889,15.991886 0 1 0 0,-31.9814 z"
      />
      <circle
        stroke-width="7"
        stroke="#f7bd13"
        fill="none"
        gorn="0.4.0.58"
        cy="1619.8353"
        cx="60.301785"
        id="connector29pin"
        r="22.5"
      />
      <path
        stroke-width="9.99493027"
        stroke="none"
        fill="#f7bd13"
        gorn="0.4.0.59"
        id="path463"
        d="m 113.70622,1619.848 a 25.986819,25.986814 0 0 1 -25.986815,25.9873 H 35.745776 A 25.986819,25.986814 0 0 1 9.7589518,1619.848 v 0 a 25.986819,25.986814 0 0 1 25.9868242,-25.9873 h 51.973639 a 25.986819,25.986814 0 0 1 25.986805,25.9873 z m -51.942154,-15.9391 a 15.992809,15.992806 0 1 0 0,31.9856 15.992809,15.992806 0 1 0 0,-31.9856 z"
      />
    </g>
  </g>
</svg>
