<?xml version='1.0' encoding='utf-8'?>
<!DOCTYPE svg>
<!-- Generator: Adobe Illustrator 15.1.0, SVG Export Plug-In . SVG Version: 6.00 Build 0)  -->
<svg xmlns="http://www.w3.org/2000/svg" viewBox="0 0 39.69 90.71" width="0.55125in" xml:space="preserve" x="0px" id="Layer_2" y="0px" version="1.1" gorn="0" xmlns:xml="http://www.w3.org/XML/1998/namespace"  height="1.25986in" enable-background="new 0 0 39.69 90.71">
    <desc >
        <referenceFile >FC28_B_BREADBOARD_v2.svg</referenceFile>
    </desc>
    <path d="M0,0v90.71h39.69V0H0z M23.127,3.989c0.661,0,1.197,0.537,1.197,1.198s-0.536,1.198-1.197,1.198c-0.662,0-1.198-0.537-1.198-1.198S22.465,3.989,23.127,3.989z M9.23,84.634c-0.662,0-1.198-0.537-1.198-1.198s0.536-1.198,1.198-1.198c0.661,0,1.197,0.537,1.197,1.198S9.891,84.634,9.23,84.634z M14.728,5.186c0-0.661,0.536-1.198,1.198-1.198c0.661,0,1.197,0.537,1.197,1.198s-0.536,1.198-1.197,1.198C15.264,6.384,14.728,5.847,14.728,5.186z M16.43,84.634c-0.662,0-1.198-0.537-1.198-1.198s0.536-1.198,1.198-1.198c0.661,0,1.197,0.537,1.197,1.198S17.091,84.634,16.43,84.634z M23.631,84.634c-0.662,0-1.198-0.537-1.198-1.198s0.536-1.198,1.198-1.198c0.661,0,1.197,0.537,1.197,1.198S24.292,84.634,23.631,84.634z M20.174,71.166c-2.611,0-4.729-2.117-4.729-4.73c0-2.611,2.118-4.729,4.729-4.729c2.614,0,4.731,2.117,4.731,4.729C24.905,69.049,22.788,71.166,20.174,71.166z M30.829,84.634c-0.662,0-1.198-0.537-1.198-1.198s0.536-1.198,1.198-1.198c0.661,0,1.197,0.537,1.197,1.198S31.49,84.634,30.829,84.634z"  fill="#19283D"/>
    <g >
        <rect width="18.198" x="18.831" y="30.061"  height="18.062" fill="#115DA8"/>
        <circle r="4.021"  cx="27.945" cy="39.083" fill="#414141"/>
        <path d="M28.57,39.769v3.285c1.695-0.266,3.041-1.59,3.336-3.274L28.57,39.769z"  fill="#999999"/>
        <path d="M28.57,38.457h3.348c-0.269-1.718-1.625-3.076-3.342-3.347L28.57,38.457z"  fill="#999999"/>
        <path d="M23.973,38.457c0.267-1.702,1.601-3.052,3.295-3.339l-0.01,3.339H23.973z"  fill="#999999"/>
        <path d="M27.258,43.045c-1.656-0.289-2.966-1.605-3.268-3.276h3.268V43.045z"  fill="#999999"/>
        <circle r="1.042"  cx="32.841" cy="45.708" fill="#D1D2D1"/>
    </g>
    <g id="silkscreen" gorn="0.3" >
        <g >
            <polyline stroke="#FFFFFF" stroke-miterlimit="10" points="9.362,66.998 9.362,72.873 2.862,72.873 2.862,66.998 "  stroke-width="1" fill="none"/>
            <polyline stroke="#FFFFFF" stroke-miterlimit="10" points="9.362,64.811 9.362,60.373 8.112,59.092 4.362,59.092 2.862,60.342 2.862,64.811 "  stroke-width="1" fill="none"/>
        </g>
        <rect width="28.167" x="5.945" y="79.914" stroke="#FFFFFF" stroke-miterlimit="10"  stroke-width="1" height="7.043" fill="none"/>
        <rect width="14.141" x="12.456" y="1.666" stroke="#FFFFFF" stroke-miterlimit="10"  stroke-width="1" height="7.041" fill="none"/>
        <g >
            <line stroke="#FFFFFF" stroke-miterlimit="10" y1="7.091"  y2="3.406" stroke-width="1" x1="29.778" x2="29.778" fill="none"/>
            <line stroke="#FFFFFF" stroke-miterlimit="10" y1="5.249"  y2="5.249" stroke-width="1" x1="31.684" x2="27.999" fill="none"/>
        </g>
        <g >
            <polyline stroke="#FFFFFF" stroke-miterlimit="10" points="10.956,17.769 10.956,12.144 4.581,12.144 4.581,17.769 "  stroke-width="1" fill="none"/>
            <polyline stroke="#FFFFFF" stroke-miterlimit="10" points="10.956,20.092 10.956,25.717 4.581,25.717 4.581,20.092 "  stroke-width="1" fill="none"/>
        </g>
        <g >
            <polyline stroke="#FFFFFF" stroke-miterlimit="10" points="18.831,17.769 18.831,12.144 12.456,12.144 12.456,17.769 "  stroke-width="1" fill="none"/>
            <polyline stroke="#FFFFFF" stroke-miterlimit="10" points="18.831,20.092 18.831,25.717 12.456,25.717 12.456,20.092 "  stroke-width="1" fill="none"/>
        </g>
        <g >
            <polyline stroke="#FFFFFF" stroke-miterlimit="10" points="26.597,20.092 26.597,24.514 24.925,26.041 22.003,26.041 20.221,24.514 20.221,20.092 "  stroke-width="1" fill="none"/>
            <polyline stroke="#FFFFFF" stroke-miterlimit="10" points="20.221,17.769 20.221,13.347 21.894,11.821 24.815,11.821 26.597,13.347 26.597,17.769 "  stroke-width="1" fill="none"/>
        </g>
        <g >
            <polyline stroke="#FFFFFF" stroke-miterlimit="10" points="34.534,20.092 34.534,24.514 32.862,26.041 29.94,26.041 28.159,24.514 28.159,20.092 "  stroke-width="1" fill="none"/>
            <polyline stroke="#FFFFFF" stroke-miterlimit="10" points="28.159,17.769 28.159,13.347 29.831,11.821 32.753,11.821 34.534,13.347 34.534,17.769 "  stroke-width="1" fill="none"/>
        </g>
        <rect width="20.167" x="17.862" y="29.166" stroke="#FFFFFF" stroke-miterlimit="10"  stroke-width="1" height="19.833" fill="none"/>
        <g >
            <polyline stroke="#FFFFFF" stroke-miterlimit="10" points="10.821,56.967 16.362,56.967 16.362,50.676 10.821,50.676 "  stroke-width="1" fill="none"/>
            <polyline stroke="#FFFFFF" stroke-miterlimit="10" points="8.53,56.967 2.862,56.967 2.862,50.676 8.53,50.676 "  stroke-width="1" fill="none"/>
        </g>
        <g >
            <polyline stroke="#FFFFFF" stroke-miterlimit="10" points="31.487,57.207 37.028,57.207 37.028,50.914 31.487,50.914 "  stroke-width="1" fill="none"/>
            <polyline stroke="#FFFFFF" stroke-miterlimit="10" points="29.195,57.207 23.528,57.207 23.528,50.914 29.195,50.914 "  stroke-width="1" fill="none"/>
        </g>
        <g >
            <polyline stroke="#FFFFFF" stroke-miterlimit="10" points="37.362,66.998 37.362,72.873 30.862,72.873 30.862,66.998 "  stroke-width="1" fill="none"/>
            <polyline stroke="#FFFFFF" stroke-miterlimit="10" points="37.362,64.811 37.362,60.373 36.112,59.092 32.362,59.092 30.862,60.342 30.862,64.811 "  stroke-width="1" fill="none"/>
        </g>
        <line stroke="#FFFFFF" stroke-miterlimit="10" y1="4.967"  y2="4.967" stroke-width="1" x1="10.956" x2="7.838" fill="none"/>
        <g transform="matrix(1 0 0 1 7.2793 78.1973)" >
            <g >
                <g >
                    <g >
                        <text font-size="3.4"  fill="#FFFFFF" font-family="DroidSans">AO  DO  GND  VCC</text>
                    </g>
                </g>
            </g>
        </g>
        <g transform="matrix(0 1 -1 0 27.3574 58.3203)" >
            <g >
                <g >
                    <g >
                        <text font-size="3.4"  fill="#FFFFFF" font-family="DroidSans">PWR—LED</text>
                    </g>
                </g>
            </g>
        </g>
        <g transform="matrix(0 -1 1 0 12.8911 73.0195)" >
            <g >
                <g >
                    <g >
                        <text font-size="3.4"  fill="#FFFFFF" font-family="DroidSans">DO—LED</text>
                    </g>
                </g>
            </g>
        </g>
    </g>
    <path d="M20.175,73.02c3.636,0,6.583-2.947,6.583-6.584c0-3.635-2.947-6.582-6.583-6.582c-3.636,0-6.583,2.947-6.583,6.582C13.592,70.072,16.539,73.02,20.175,73.02z M20.175,61.707c2.612,0,4.73,2.117,4.73,4.729c0,2.613-2.118,4.73-4.73,4.73c-2.612,0-4.73-2.117-4.73-4.73C15.445,63.824,17.563,61.707,20.175,61.707z"  fill="#B0AFB0"/>
    <g id="copper1" gorn="0.5" >
        <g id="copper0" gorn="0.5.0" >
            <path d="M30.829,85.828c1.322,0,2.393-1.07,2.393-2.393s-1.07-2.393-2.393-2.393s-2.393,1.07-2.393,2.393S29.507,85.828,30.829,85.828z M30.829,82.238c0.662,0,1.197,0.535,1.197,1.197c0,0.66-0.535,1.197-1.197,1.197c-0.66,0-1.197-0.537-1.197-1.197C29.632,82.773,30.169,82.238,30.829,82.238z" id="connector8pin" gorn="0.5.0.0"  fill="#9A916C"/>
            <path d="M23.629,85.828c1.322,0,2.395-1.07,2.395-2.393s-1.072-2.393-2.395-2.393c-1.32,0-2.393,1.07-2.393,2.393S22.309,85.828,23.629,85.828z M23.629,82.238c0.662,0,1.197,0.535,1.197,1.197c0,0.66-0.535,1.197-1.197,1.197c-0.66,0-1.195-0.537-1.195-1.197C22.434,82.773,22.969,82.238,23.629,82.238z" id="connector9pin" gorn="0.5.0.1"  fill="#9A916C"/>
            <path d="M16.429,85.828c1.322,0,2.393-1.07,2.393-2.393s-1.07-2.393-2.393-2.393s-2.393,1.07-2.393,2.393S15.107,85.828,16.429,85.828z M16.427,82.238c0.662,0,1.197,0.535,1.197,1.197c0,0.66-0.535,1.197-1.197,1.197c-0.66,0-1.195-0.537-1.195-1.197C15.232,82.773,15.767,82.238,16.427,82.238z" id="connector10pin" gorn="0.5.0.2"  fill="#9A916C"/>
            <path d="M9.228,85.828c1.322,0,2.393-1.07,2.393-2.393s-1.07-2.393-2.393-2.393s-2.393,1.07-2.393,2.393S7.906,85.828,9.228,85.828z M9.228,82.238c0.662,0,1.197,0.535,1.197,1.197c0,0.66-0.535,1.197-1.197,1.197c-0.66,0-1.197-0.537-1.197-1.197C8.031,82.773,8.568,82.238,9.228,82.238z" id="connector11pin" gorn="0.5.0.3"  fill="#9A916C"/>
        </g>
        <g id="copper0_2_" gorn="0.5.1" >
            <g id="copper0_1_" gorn="0.5.1.0" >
                <path d="M23.127,7.579c1.322,0,2.393-1.07,2.393-2.393s-1.07-2.393-2.393-2.393s-2.393,1.07-2.393,2.393S21.805,7.579,23.127,7.579z M23.125,3.989c0.662,0,1.197,0.535,1.197,1.197c0,0.66-0.535,1.197-1.197,1.197c-0.66,0-1.195-0.537-1.195-1.197C21.93,4.524,22.465,3.989,23.125,3.989z" id="connector12pin" gorn="0.5.1.0.0"  fill="#9A916C"/>
                <path d="M15.926,7.579c1.322,0,2.393-1.07,2.393-2.393s-1.07-2.393-2.393-2.393s-2.393,1.07-2.393,2.393S14.604,7.579,15.926,7.579z M15.926,3.989c0.662,0,1.197,0.535,1.197,1.197c0,0.66-0.535,1.197-1.197,1.197c-0.66,0-1.197-0.537-1.197-1.197C14.729,4.524,15.266,3.989,15.926,3.989z" id="connector13pin" gorn="0.5.1.0.1"  fill="#9A916C"/>
            </g>
        </g>
    </g>
    <g >
        <rect width="3.499" x="6.088" y="15.471"  height="5.848" fill="#020202"/>
        <rect width="3.499" x="6.088" y="20.11"  height="1.209" fill="#999999"/>
        <rect width="3.499" x="6.088" y="15.471"  height="1.076" fill="#999999"/>
    </g>
    <g >
        <rect width="3.119" x="30.124" y="15.76"  height="5.271" fill="#847863"/>
        <rect width="3.119" x="30.124" y="15.76"  height="1.186" fill="#999999"/>
        <rect width="3.12" x="30.123" y="19.842"  height="1.188" fill="#999999"/>
    </g>
    <g >
        <rect width="2.922" x="5.002" y="63.623"  height="5.625" fill="#8E8D8A"/>
        <rect width="2.922" x="5.002" y="64.623"  height="3.406" fill="#B6B39A"/>
        <rect width="1.438" x="5.554" y="65.781"  height="1.625" fill="#D8C66B"/>
        <circle r="0.18"  cx="6.635" cy="66.154" fill="#508759"/>
    </g>
    <g >
        <rect width="3.119" x="21.969" y="15.76"  height="5.271" fill="#847863"/>
        <rect width="3.119" x="21.969" y="15.76"  height="1.186" fill="#999999"/>
        <rect width="3.119" x="21.969" y="19.842"  height="1.188" fill="#999999"/>
    </g>
    <g >
        <rect width="3.499" x="13.893" y="15.471"  height="5.848" fill="#020202"/>
        <rect width="3.499" x="13.893" y="20.111"  height="1.208" fill="#999999"/>
        <rect width="3.499" x="13.893" y="15.471"  height="1.077" fill="#999999"/>
    </g>
    <g >
        <rect width="2.922" x="33.128" y="63.162"  height="5.625" fill="#8E8D8A"/>
        <rect width="2.922" x="33.128" y="64.162"  height="3.406" fill="#B6B39A"/>
        <rect width="1.438" x="33.68" y="65.32"  height="1.625" fill="#D8C66B"/>
        <circle r="0.18"  cx="34.761" cy="65.693" fill="#508759"/>
    </g>
    <g >
        <rect width="5.848" x="28.097" y="52.213"  height="3.217" fill="#020202"/>
        <rect width="1.209" x="28.097" y="52.213"  height="3.217" fill="#999999"/>
        <rect width="1.076" x="32.868" y="52.213"  height="3.217" fill="#999999"/>
    </g>
    <g >
        <rect width="5.848" x="7.744" y="52.451"  height="3.219" fill="#020202"/>
        <rect width="1.209" x="7.744" y="52.451"  height="3.219" fill="#999999"/>
        <rect width="1.076" x="12.515" y="52.451"  height="3.219" fill="#999999"/>
    </g>
    <g >
        <rect width="13.2" x="3.162" y="34.214"  height="9.235" fill="#414141"/>
        <g >
            <g >
                <rect width="1.107" x="14.562" y="30.506"  height="3.708" fill="#999999"/>
                <rect width="1.107" x="14.562" y="31.808"  height="0.938" fill="#666766"/>
            </g>
            <g >
                <rect width="1.107" x="11" y="30.506"  height="3.708" fill="#999999"/>
                <rect width="1.107" x="11" y="31.808"  height="0.938" fill="#666766"/>
            </g>
            <g >
                <rect width="1.107" x="7.417" y="30.506"  height="3.708" fill="#999999"/>
                <rect width="1.107" x="7.417" y="31.808"  height="0.938" fill="#666766"/>
            </g>
            <g >
                <rect width="1.107" x="3.708" y="30.506"  height="3.708" fill="#999999"/>
                <rect width="1.107" x="3.708" y="31.808"  height="0.938" fill="#666766"/>
            </g>
        </g>
        <g >
            <g >
                <rect width="1.107" x="3.666" y="43.45"  height="3.708" fill="#999999"/>
                <rect width="1.107" x="3.666" y="44.918"  height="0.938" fill="#666766"/>
            </g>
            <g >
                <rect width="1.107" x="7.312" y="43.45"  height="3.708" fill="#999999"/>
                <rect width="1.107" x="7.312" y="44.918"  height="0.938" fill="#666766"/>
            </g>
            <g >
                <rect width="1.107" x="10.853" y="43.45"  height="3.708" fill="#999999"/>
                <rect width="1.107" x="10.853" y="44.918"  height="0.938" fill="#666766"/>
            </g>
            <g >
                <rect width="1.107" x="14.562" y="43.45"  height="3.708" fill="#999999"/>
                <rect width="1.107" x="14.562" y="44.918"  height="0.938" fill="#666766"/>
            </g>
        </g>
        <circle r="0.926"  cx="5.002" cy="41.791" fill="#232323"/>
    </g>
</svg>
