<?xml version='1.0' encoding='utf-8'?>
<!DOCTYPE svg>
<!-- Generator: Adobe Illustrator 15.1.0, SVG Export Plug-In . SVG Version: 6.00 Build 0)  -->
<svg xmlns="http://www.w3.org/2000/svg" viewBox="0 0 56.69 170.08" width="0.787361in" xml:space="preserve" x="0px" id="Layer_2" y="0px" version="1.1" gorn="0" xmlns:xml="http://www.w3.org/XML/1998/namespace"  height="2.36222in" enable-background="new 0 0 56.69 170.08">
    <desc >
        <referenceFile >FC28_P_PCB_v1.svg</referenceFile>
    </desc>
    <g id="silkscreen" gorn="0.1" >
        <rect width="14.186" x="21.252" y="4.088" stroke="#FFFFFF" stroke-miterlimit="10"  stroke-width="0.65" height="6.651" fill="none"/>
        <g transform="matrix(1 0 0 1 19.2285 20.23)" >
            <g >
                <g >
                    <text font-size="7"  fill="#FFFFFF" font-family="DroidSans">FC-28</text>
                </g>
            </g>
        </g>
        <rect width="56.69" stroke="#FFFFFF" stroke-miterlimit="10"  stroke-width="0.75" height="170.08" fill="none"/>
    </g>
    <g id="copper1" gorn="0.2" >
        <g id="copper0" gorn="0.2.0" >
            <path d="M24.745,5.021c-1.322,0-2.393,1.07-2.393,2.393s1.07,2.394,2.393,2.394s2.393-1.071,2.393-2.394S26.067,5.021,24.745,5.021z M24.745,8.611c-0.662,0-1.197-0.535-1.197-1.197c0-0.66,0.535-1.197,1.197-1.197c0.66,0,1.197,0.537,1.197,1.197C25.942,8.076,25.405,8.611,24.745,8.611z" id="connector8pad" gorn="0.2.0.0"  fill="#F5BD18"/>
            <path d="M31.945,5.021c-1.322,0-2.395,1.07-2.395,2.393s1.072,2.394,2.395,2.394c1.32,0,2.393-1.071,2.393-2.394S33.266,5.021,31.945,5.021z M31.945,8.611c-0.662,0-1.197-0.535-1.197-1.197c0-0.66,0.535-1.197,1.197-1.197c0.66,0,1.195,0.537,1.195,1.197C33.141,8.076,32.605,8.611,31.945,8.611z" id="connector9pad" gorn="0.2.0.1"  fill="#F5BD18"/>
        </g>
    </g>
</svg>
